<?xml version="1.0" encoding="utf-8"?>
<!-- Generator: Adobe Illustrator 18.1.1, SVG Export Plug-In . SVG Version: 6.00 Build 0)  -->
<svg version="1.1" id="Layer_1" xmlns="http://www.w3.org/2000/svg" xmlns:xlink="http://www.w3.org/1999/xlink" x="0px" y="0px"
	 viewBox="0 0 178 31.3" enable-background="new 0 0 178 31.3" xml:space="preserve">
<rect x="-96.2" y="4" fill="none" width="375" height="148.5"/>
<text transform="matrix(1 0 0 1 6.5879 27.9814)" display="none" opacity="0.16" font-family="'ProximaNovaA-Bold'" font-size="36" letter-spacing="7">IMPACT</text>
<g>
	<path fill="none" stroke="#000000" d="M7.4,27.7v-24"/>
	<line fill="none" stroke="#000000" x1="34" y1="24.2" x2="28.6" y2="10.3"/>
	<polyline fill="none" stroke="#000000" points="45.3,27.7 45.3,10.3 38.5,27.7 	"/>
	<polyline fill="none" stroke="#000000" points="47,3.6 50.4,3.6 50.4,27.7 	"/>
	<line fill="none" stroke="#000000" x1="30.6" y1="3.6" x2="36.4" y2="18.7"/>
	<line fill="none" stroke="#000000" x1="23.4" y1="27.7" x2="23.4" y2="3.6"/>
	<path fill="none" stroke="#000000" d="M74.6,3.6c1.3,0,2.4,0.2,3.4,0.6s1.9,1,2.5,1.7c0.7,0.7,1.2,1.5,1.5,2.5
		c0.4,0.9,0.5,1.9,0.5,3c0,1.1-0.2,2-0.5,3s-0.9,1.7-1.5,2.5c-0.7,0.7-1.5,1.3-2.5,1.7c-1,0.4-2.2,0.6-3.4,0.6h-6.1 M63.4,27.7v-24
		 M76.5,13.7c0.7-0.6,1-1.4,1-2.3c0-1-0.3-1.8-1-2.4S75,8.1,73.9,8.1h-5.4"/>
	<path fill="none" stroke="#000000" d="M105.5,23.6H95.2l-1.5,4.1 M103.6,3.6l9.2,24 M87.9,27.7l9.2-24 M100.4,8.8 M100.4,8.8
		l-3.7,10.3h3.8"/>
	<path fill="none" stroke="#000000" d="M132.7,28.1c-1.8,0-3.5-0.3-5.1-0.9c-1.6-0.6-2.9-1.5-4.1-2.5c-1.1-1.1-2-2.4-2.7-3.9
		c-0.7-1.6-1-3.2-1-5.1c0-2.4,0.6-4.6,1.7-6.5c1.1-1.9,2.7-3.4,4.6-4.4c1.9-1,4.1-1.5,6.5-1.5c1.3,0,2.4,0.2,3.5,0.5
		c1.1,0.3,2,0.8,2.8,1.3c0.8,0.6,1.5,1.2,2.1,1.8c0.6,0.7,1.1,1.4,1.6,2.2 M132.7,7.7c-2.2,0-4,0.7-5.4,2.2s-2.1,3.4-2.1,5.7
		s0.7,4.2,2.1,5.7s3.2,2.3,5.4,2.3c1.2,0,2.3-0.3,3.3-1c1-0.7,1.8-1.5,2.3-2.5l4.4,2.1"/>
	<path fill="none" stroke="#000000" d="M170.6,8.1h-7 M151.4,3.6h19.2 M158.5,27.7V8.1h-7"/>
</g>
</svg>
